<?xml version="1.0" encoding="UTF-8" standalone="no"?><!DOCTYPE svg PUBLIC "-//W3C//DTD SVG 1.1//EN" "http://www.w3.org/Graphics/SVG/1.1/DTD/svg11.dtd"><svg width="100%" height="100%" viewBox="0 0 264 263" version="1.1" xmlns="http://www.w3.org/2000/svg" xmlns:xlink="http://www.w3.org/1999/xlink" xml:space="preserve" xmlns:serif="http://www.serif.com/" style="fill-rule:evenodd;clip-rule:evenodd;stroke-linejoin:round;stroke-miterlimit:1.41421;"><g id="earpods"><g id="Case"><path d="M263.847,66.138c0,-36.086 -29.297,-65.384 -65.384,-65.384l-132.161,0c-36.086,0 -65.384,29.298 -65.384,65.384l0,130.768c0,36.086 29.298,65.384 65.384,65.384l132.161,0c36.087,0 65.384,-29.298 65.384,-65.384l0,-130.768Z" style="fill:#b3b3b3;"/><path d="M259.977,68.063c0,-35.024 -28.435,-63.459 -63.459,-63.459l-128.271,0c-35.023,0 -63.458,28.435 -63.458,63.459l0,126.918c0,35.024 28.435,63.459 63.458,63.459l128.271,0c35.024,0 63.459,-28.435 63.459,-63.459l0,-126.918Z" style="fill:#ccc;"/><path d="M255.796,65.189c0,-31.109 -25.256,-56.366 -56.365,-56.366l-134.129,0c-31.108,0 -56.365,25.257 -56.365,56.366l0,131.654c0,31.109 25.257,56.366 56.365,56.366l134.129,0c31.109,0 56.365,-25.257 56.365,-56.366l0,-131.654Z" style="fill:#e6e6e6;"/></g><g id="Left-Bud" serif:id="Left Bud"><path id="Wire-space" d="M103.755,244.137c1.673,4.565 4.637,7.521 8.742,9.058l0,0.014l-27.962,0c4.109,-1.527 7.079,-4.471 8.761,-9.02l0,-38.359l10.44,0l0,38.307l0.019,0Z" style="fill:#2e2e2e;"/><g id="wires-and-joints" serif:id="wires and joints"><rect id="wrapped-wire" serif:id="wrapped wire" x="93.354" y="235.888" width="10.324" height="6.806" style="fill:#ebebeb;"/><rect id="higher-wrapped-wire" serif:id="higher wrapped wire" x="93.361" y="234.993" width="10.324" height="6.806" style="fill:#ebebeb;"/><path id="wire-attached-to-bud" serif:id="wire attached to bud" d="M95.868,225.075l6.221,0c0.488,0.719 1.02,1.31 1.596,1.774l0,7.64c-4.024,-2.534 -6.788,-5.606 -7.817,-9.414Z" style="fill:#ebebeb;"/><path id="bud-joint" serif:id="bud joint" d="M103.685,205.83l-10.017,0l0,17.203c0,1.127 0.916,2.042 2.043,2.042l5.971,0c1.105,0 2.003,-0.897 2.003,-2.003l0,-17.242Z" style="fill:#8c8c8c;"/></g><g id="Bud"><path d="M87.202,205.83l22.535,0l0,-91.897c-4.425,-30.362 -17.425,-51.163 -44.06,-57.847c-3.198,-0.357 -3.958,-0.262 -6.845,0c-10.967,1.949 -18.967,9.604 -26.743,21.755c-0.477,7.486 -0.315,14.665 0,22.131c5.803,11.503 13.193,20.873 26.743,24.74c2.21,0.348 7.18,0.379 9.392,0c9.551,-2.214 12.89,-10.25 15.345,-9.657c2.387,0.505 2.289,2.431 3.633,5.616l0,85.159Z" style="fill:#bfbfbf;"/><path d="M88.358,205.83l20.493,0l0,-91.369c-4.973,-30.967 -18.443,-51.338 -42.789,-58.143c-2.908,-0.355 -5.61,-0.261 -8.236,0c-9.973,1.937 -18.392,9.307 -25.463,21.389c-0.435,7.443 -0.287,14.871 0,22.294c5.276,11.437 14.272,18.866 26.594,22.711c2.009,0.346 4.019,0.377 6.03,0c8.686,-2.201 16.457,-10.805 18.689,-10.216c2.171,0.503 3.461,2.722 4.682,5.889l0,87.445Z" style="fill:#fff;"/><path d="M102.489,181.772c0,-0.629 -0.511,-1.14 -1.14,-1.14c-0.629,0 -1.14,0.511 -1.14,1.14l0,12.11c0,0.629 0.511,1.14 1.14,1.14c0.629,0 1.14,-0.511 1.14,-1.14l0,-12.11Z" style="fill:#2e2e2e;"/><g id="Speaker"><path d="M41.962,78.753c0,-2.339 -1.899,-4.239 -4.239,-4.239c-2.339,0 -4.239,1.9 -4.239,4.239l0,20.926c0,2.34 1.9,4.239 4.239,4.239c2.34,0 4.239,-1.899 4.239,-4.239l0,-20.926Z" style="fill:#595959;"/><path d="M39.491,74.9c1.458,0.67 2.471,2.145 2.471,3.853l0,20.926c0,1.709 -1.013,3.183 -2.471,3.854c-1.722,-0.736 -2.93,-2.446 -2.93,-4.435l0,-19.763c0,-1.99 1.208,-3.699 2.93,-4.435Z" style="fill:#262626;"/></g></g></g><g id="Right-Bud" serif:id="Right Bud"><path id="Wire-space1" serif:id="Wire-space" d="M160.113,244.137c-1.673,4.565 -4.638,7.521 -8.742,9.058l0,0.014l27.962,0c-4.109,-1.527 -7.08,-4.471 -8.761,-9.02l0,-38.359l-10.44,0l0,38.307l-0.019,0Z" style="fill:#2e2e2e;"/><g id="wires-and-joints1" serif:id="wires and joints"><rect id="wrapped-wire1" serif:id="wrapped wire" x="160.19" y="235.888" width="10.324" height="6.806" style="fill:#ebebeb;"/><rect id="higher-wrapped-wire1" serif:id="higher wrapped wire" x="160.183" y="234.993" width="10.324" height="6.806" style="fill:#ebebeb;"/><path id="wire-attached-to-bud1" serif:id="wire attached to bud" d="M162.383,225.075l6.221,0c0.488,0.719 1.019,1.31 1.595,1.774l0,7.64c-4.023,-2.534 -6.787,-5.606 -7.816,-9.414Z" style="fill:#ebebeb;"/><path id="bud-joint1" serif:id="bud joint" d="M170.199,205.83l-10.016,0l0,17.203c0,1.127 0.915,2.042 2.042,2.042l5.971,0c1.106,0 2.003,-0.897 2.003,-2.003l0,-17.242Z" style="fill:#8c8c8c;"/></g><g id="Bud1" serif:id="Bud"><path d="M176.666,205.83l-22.535,0l0,-91.897c4.425,-30.362 17.425,-51.163 44.059,-57.847c3.199,-0.357 3.958,-0.262 6.846,0c10.967,1.949 18.966,9.604 26.742,21.755c0.478,7.486 0.315,14.665 0,22.131c-5.802,11.503 -13.192,20.873 -26.742,24.74c-2.21,0.348 -7.181,0.379 -9.392,0c-9.552,-2.214 -12.89,-10.25 -15.345,-9.657c-2.387,0.505 -2.29,2.431 -3.633,5.616l0,85.159Z" style="fill:#bfbfbf;"/><path d="M175.509,205.83l-20.492,0l0,-91.369c4.973,-30.967 18.443,-51.338 42.789,-58.143c2.908,-0.355 5.61,-0.261 8.236,0c9.973,1.937 18.392,9.307 25.463,21.389c0.435,7.443 0.287,14.871 0,22.294c-5.277,11.437 -14.272,18.866 -26.594,22.711c-2.01,0.346 -4.02,0.377 -6.031,0c-8.686,-2.201 -16.456,-10.805 -18.688,-10.216c-2.171,0.503 -3.461,2.722 -4.683,5.889l0,87.445Z" style="fill:#fff;"/><path d="M161.378,181.772c0,-0.629 0.511,-1.14 1.141,-1.14c0.629,0 1.14,0.511 1.14,1.14l0,12.11c0,0.629 -0.511,1.14 -1.14,1.14c-0.63,0 -1.141,-0.511 -1.141,-1.14l0,-12.11Z" style="fill:#2e2e2e;"/><g id="Speaker1" serif:id="Speaker"><path d="M221.906,78.753c0,-2.339 1.899,-4.239 4.239,-4.239c2.339,0 4.239,1.9 4.239,4.239l0,20.926c0,2.34 -1.9,4.239 -4.239,4.239c-2.34,0 -4.239,-1.899 -4.239,-4.239l0,-20.926Z" style="fill:#595959;"/><path d="M224.377,74.9c-1.458,0.67 -2.471,2.145 -2.471,3.853l0,20.926c0,1.709 1.013,3.183 2.471,3.854c1.722,-0.736 2.93,-2.446 2.93,-4.435l0,-19.763c0,-1.99 -1.208,-3.699 -2.93,-4.435Z" style="fill:#262626;"/></g></g></g><g id="center-space" serif:id="center space"><path id="space" d="M126.671,206.967l-1.283,0c-3.589,0 -6.503,-2.914 -6.503,-6.503l0,-137.27c0,-3.589 2.914,-6.502 6.503,-6.503l1.302,0l0,-38.702c-1.679,-4.626 -4.656,-7.617 -8.781,-9.166l27.962,0l0,0.015c-4.104,1.552 -7.068,4.539 -8.742,9.151l0,38.702l1.264,0c3.589,0.001 6.502,2.914 6.502,6.503l0,137.27c0,3.589 -2.913,6.502 -6.502,6.503l-1.283,0l0,37.076l0.019,0c1.674,4.612 4.638,7.599 8.742,9.151l0,0.015l-27.962,0c4.109,-1.543 7.08,-4.517 8.762,-9.114l0,-37.128Z" style="fill:#2e2e2e;"/><g id="wires-and-joints2" serif:id="wires and joints"><rect id="wrapped-wire2" serif:id="wrapped wire" x="126.725" y="235.888" width="10.324" height="6.806" style="fill:#ebebeb;"/><rect id="higher-wrapped-wire2" serif:id="higher wrapped wire" x="126.732" y="234.993" width="10.324" height="6.806" style="fill:#ebebeb;"/><path id="wire-attached-to-bud2" serif:id="wire attached to bud" d="M129.239,225.075l6.221,0c0.488,0.719 1.02,1.31 1.596,1.774l0,7.64c-4.024,-2.534 -6.788,-5.606 -7.817,-9.414Z" style="fill:#ebebeb;"/><path id="bud-joint2" serif:id="bud joint" d="M137.056,205.83l-10.017,0l0,17.203c0,1.127 0.916,2.042 2.043,2.042l5.971,0c1.105,0 2.003,-0.897 2.003,-2.003l0,-17.242Z" style="fill:#8c8c8c;"/></g><g id="wires-and-joints3" serif:id="wires and joints"><rect id="wrapped-wire3" serif:id="wrapped wire" x="126.728" y="18.403" width="10.324" height="6.806" style="fill:#ebebeb;"/><rect id="higher-wrapped-wire3" serif:id="higher wrapped wire" x="126.728" y="19.853" width="10.324" height="6.806" style="fill:#ebebeb;"/><path id="wire-attached-to-bud3" serif:id="wire attached to bud" d="M129.239,37.117l6.221,0c0.488,-0.719 1.02,-1.31 1.596,-1.774l0,-7.64c-4.024,2.534 -6.788,5.606 -7.817,9.414Z" style="fill:#ebebeb;"/><path id="bud-joint3" serif:id="bud joint" d="M137.056,56.362l-10.017,0l0,-17.203c0,-1.127 0.916,-2.042 2.043,-2.042l5.971,0c1.105,0 2.003,0.897 2.003,2.003l0,17.242Z" style="fill:#8c8c8c;"/></g><g id="volume-control" serif:id="volume control"><path id="button-base" serif:id="button base" d="M144.792,63.17c0,-3.568 -2.896,-6.465 -6.464,-6.465l-12.929,0c-3.567,0 -6.464,2.897 -6.464,6.465l0,137.287c0,3.567 2.897,6.464 6.464,6.464l12.929,0c3.568,0 6.464,-2.897 6.464,-6.464l0,-137.287Z" style="fill:#fff;"/><path id="volume-down" serif:id="volume down" d="M135.118,185.384c0.087,0 0.157,-0.07 0.157,-0.157c0,-0.086 -0.07,-0.156 -0.157,-0.156l-8.274,0c-0.086,0 -0.156,0.07 -0.156,0.156c0,0.087 0.07,0.157 0.156,0.157l8.274,0Z" style="fill:#616161;"/><g id="volume-up" serif:id="volume up"><path d="M135.275,79.304c0.087,0 0.157,-0.071 0.157,-0.157c0,-0.087 -0.07,-0.157 -0.157,-0.157l-8.274,0c-0.086,0 -0.157,0.07 -0.157,0.157c0,0.086 0.071,0.157 0.157,0.157l8.274,0Z" style="fill:#616161;"/><path d="M131.295,75.01c0,-0.087 -0.07,-0.157 -0.157,-0.157l0,0c-0.086,0 -0.157,0.07 -0.157,0.157l0,8.274c0,0.086 0.071,0.157 0.157,0.157l0,0c0.087,0 0.157,-0.071 0.157,-0.157l0,-8.274Z" style="fill:#616161;"/></g></g></g></g></svg>