<?xml version="1.0" encoding="UTF-8" standalone="no"?><!DOCTYPE svg PUBLIC "-//W3C//DTD SVG 1.1//EN" "http://www.w3.org/Graphics/SVG/1.1/DTD/svg11.dtd"><svg width="100%" height="100%" viewBox="0 0 297 606" version="1.1" xmlns="http://www.w3.org/2000/svg" xmlns:xlink="http://www.w3.org/1999/xlink" xml:space="preserve" xmlns:serif="http://www.serif.com/" style="fill-rule:evenodd;clip-rule:evenodd;stroke-linejoin:round;stroke-miterlimit:1.41421;"><g id="iphone"><g id="body"><path d="M296.966,38.327c0,-20.998 -17.048,-38.046 -38.047,-38.046l-220.518,0c-20.998,0 -38.046,17.048 -38.046,38.046l0,528.955c0,20.998 17.048,38.046 38.046,38.046l220.518,0c20.999,0 38.047,-17.048 38.047,-38.046l0,-528.955Z" style="fill:#2e2e2e;"/><path d="M285.161,45.758c0,-19.473 -15.81,-35.282 -35.283,-35.282l-202.84,0c-19.473,0 -35.282,15.809 -35.282,35.282l0,514.093c0,19.472 15.809,35.282 35.282,35.282l202.84,0c19.473,0 35.283,-15.81 35.283,-35.282l0,-514.093Z" style="fill:#ebebeb;"/></g><path id="screen" d="M278.339,80.438c0,-4.311 -3.501,-7.812 -7.813,-7.812l-244.136,0c-4.312,0 -7.812,3.501 -7.812,7.812l0,436.849c0,4.312 3.5,7.813 7.812,7.813l244.136,0c4.312,0 7.813,-3.501 7.813,-7.813l0,-436.849Z" style="fill:#2e2e2e;"/><g id="home-button" serif:id="home button"><circle cx="148.66" cy="557.537" r="22.633" style="fill:#b5b5b5;"/><circle cx="148.458" cy="557.537" r="19.365" style="fill:#fff8f8;"/></g><g id="microphones-and-cameras" serif:id="microphones and cameras"><circle cx="118.706" cy="49.262" r="3.371" style="fill:#2e2e2e;"/><circle cx="148.458" cy="30.376" r="4.956" style="fill:#2e2e2e;"/><path d="M167.019,49.262c0,-1.861 -1.51,-3.371 -3.371,-3.371l-30.38,0c-1.86,0 -3.371,1.51 -3.371,3.371c0,1.86 1.511,3.37 3.371,3.37l30.38,0c1.861,0 3.371,-1.51 3.371,-3.37Z" style="fill:#2e2e2e;"/></g></g></svg>