<?xml version="1.0" encoding="UTF-8" standalone="no"?><!DOCTYPE svg PUBLIC "-//W3C//DTD SVG 1.1//EN" "http://www.w3.org/Graphics/SVG/1.1/DTD/svg11.dtd"><svg width="100%" height="100%" viewBox="0 0 433 606" version="1.1" xmlns="http://www.w3.org/2000/svg" xmlns:xlink="http://www.w3.org/1999/xlink" xml:space="preserve" xmlns:serif="http://www.serif.com/" style="fill-rule:evenodd;clip-rule:evenodd;stroke-linejoin:round;stroke-miterlimit:1.41421;"><g id="Notebook"><path id="Notebook-Cover" serif:id="Notebook Cover" d="M432.194,21.847c0,-11.924 -9.681,-21.605 -21.606,-21.605l-404.16,0c-3.501,0 -6.344,2.843 -6.344,6.344l0,594.382c0,2.385 1.936,4.322 4.321,4.322l406.183,0c11.925,0 21.606,-9.682 21.606,-21.606l0,-561.837Z" style="fill:#310000;"/><g id="Sticker-Label" serif:id="Sticker Label"><path id="Backing" d="M399.476,325.247c0,-0.827 -0.671,-1.498 -1.498,-1.498l-146.869,0c-0.827,0 -1.499,0.671 -1.499,1.498l0,243.342c0,0.827 0.672,1.498 1.499,1.498l146.869,0c0.827,0 1.498,-0.671 1.498,-1.498l0,-243.342Z" style="fill:#fff9c4;"/><g id="Barcode"><g id="Barcode-bars" serif:id="Barcode bars"><rect x="351.63" y="468.542" width="31.604" height="3.063" style="fill:#515151;"/><rect x="351.63" y="479.377" width="31.604" height="3.063" style="fill:#515151;"/><rect x="351.63" y="489.818" width="31.604" height="3.063" style="fill:#515151;"/><rect x="351.63" y="503.053" width="31.604" height="3.063" style="fill:#515151;"/><rect x="351.63" y="517.355" width="31.604" height="3.063" style="fill:#515151;"/><rect x="351.63" y="557.304" width="31.604" height="3.063" style="fill:#515151;"/><rect x="351.63" y="511.811" width="31.604" height="1.843" style="fill:#515151;"/><rect x="351.63" y="521.953" width="31.604" height="1.843" style="fill:#515151;"/><rect x="351.63" y="547.563" width="31.604" height="1.843" style="fill:#515151;"/><rect x="351.63" y="495.21" width="31.604" height="1.843" style="fill:#515151;"/><rect x="351.63" y="485.78" width="31.604" height="1.843" style="fill:#515151;"/><rect x="351.63" y="473.45" width="31.604" height="0.955" style="fill:#515151;"/><rect x="351.63" y="508.372" width="31.604" height="0.955" style="fill:#515151;"/><rect x="351.63" y="500.855" width="31.604" height="0.955" style="fill:#515151;"/><rect x="351.63" y="545.437" width="31.604" height="0.955" style="fill:#515151;"/><rect x="351.63" y="525.018" width="31.604" height="0.955" style="fill:#515151;"/><rect x="351.63" y="538.935" width="31.604" height="0.955" style="fill:#515151;"/><rect x="351.63" y="532.567" width="31.604" height="0.955" style="fill:#515151;"/><rect x="351.63" y="530.516" width="31.604" height="0.955" style="fill:#515151;"/><rect x="351.63" y="550.137" width="31.604" height="0.708" style="fill:#515151;"/><rect x="351.63" y="541.354" width="31.604" height="0.708" style="fill:#515151;"/><rect x="351.63" y="534.095" width="31.604" height="0.708" style="fill:#515151;"/><rect x="351.63" y="535.359" width="31.604" height="0.708" style="fill:#515151;"/><rect x="351.63" y="515.109" width="31.604" height="0.955" style="fill:#515151;"/></g><g><path d="M391.084,557.991l-1.171,0l0,2.381l-0.976,0l-3.696,-2.524l0,-0.937l3.692,0l0,-0.722l0.98,0l0,0.722l1.171,0l0,1.08Zm-2.151,0l-1.989,0l1.989,1.337l0,-1.337Z" style="fill:#515151;fill-rule:nonzero;"/><path d="M389.738,552.756l-0.119,-1.08c0.22,-0.027 0.383,-0.095 0.488,-0.206c0.106,-0.112 0.159,-0.258 0.159,-0.441c0,-0.23 -0.106,-0.426 -0.317,-0.587c-0.212,-0.162 -0.651,-0.265 -1.318,-0.31c0.325,0.28 0.488,0.631 0.488,1.052c0,0.458 -0.176,0.852 -0.53,1.185c-0.353,0.332 -0.813,0.498 -1.379,0.498c-0.59,0 -1.066,-0.176 -1.427,-0.526c-0.361,-0.351 -0.542,-0.797 -0.542,-1.34c0,-0.59 0.229,-1.074 0.685,-1.453c0.456,-0.378 1.207,-0.567 2.252,-0.567c1.064,0 1.832,0.197 2.303,0.591c0.471,0.395 0.706,0.908 0.706,1.54c0,0.455 -0.121,0.823 -0.363,1.104c-0.242,0.28 -0.604,0.46 -1.086,0.54Zm-2.437,-2.525c-0.36,0 -0.639,0.083 -0.837,0.248c-0.199,0.166 -0.298,0.357 -0.298,0.574c0,0.206 0.081,0.378 0.244,0.514c0.163,0.136 0.43,0.204 0.8,0.204c0.376,0 0.652,-0.074 0.828,-0.222c0.176,-0.148 0.264,-0.333 0.264,-0.556c0,-0.214 -0.085,-0.395 -0.254,-0.542c-0.17,-0.146 -0.419,-0.22 -0.747,-0.22Z" style="fill:#515151;fill-rule:nonzero;"/><path d="M389.54,545.421l-0.131,-1.08c0.275,-0.034 0.485,-0.127 0.631,-0.278c0.146,-0.151 0.218,-0.333 0.218,-0.548c0,-0.23 -0.087,-0.424 -0.262,-0.581c-0.174,-0.158 -0.41,-0.236 -0.706,-0.236c-0.281,0 -0.503,0.075 -0.667,0.226c-0.164,0.151 -0.246,0.335 -0.246,0.552c0,0.143 0.028,0.313 0.083,0.512l-0.909,-0.123c0.008,-0.302 -0.057,-0.532 -0.196,-0.691c-0.139,-0.159 -0.324,-0.238 -0.554,-0.238c-0.196,0 -0.352,0.058 -0.468,0.175c-0.117,0.116 -0.175,0.271 -0.175,0.464c0,0.19 0.066,0.353 0.199,0.488c0.132,0.135 0.325,0.217 0.579,0.246l-0.175,1.028c-0.351,-0.071 -0.633,-0.179 -0.843,-0.323c-0.21,-0.144 -0.376,-0.346 -0.496,-0.604c-0.12,-0.258 -0.181,-0.547 -0.181,-0.867c0,-0.548 0.175,-0.987 0.524,-1.318c0.286,-0.272 0.609,-0.408 0.969,-0.408c0.51,0 0.918,0.279 1.222,0.837c0.072,-0.333 0.232,-0.6 0.48,-0.8c0.249,-0.199 0.55,-0.299 0.901,-0.299c0.511,0 0.946,0.186 1.306,0.559c0.36,0.373 0.54,0.838 0.54,1.393c0,0.527 -0.151,0.964 -0.454,1.31c-0.303,0.347 -0.7,0.548 -1.189,0.604Z" style="fill:#515151;fill-rule:nonzero;"/><path d="M391.084,535.795l-1.171,0l0,2.382l-0.976,0l-3.696,-2.524l0,-0.937l3.692,0l0,-0.723l0.98,0l0,0.723l1.171,0l0,1.079Zm-2.151,0l-1.989,0l1.989,1.338l0,-1.338Z" style="fill:#515151;fill-rule:nonzero;"/><path d="M386.38,530.584l-1.035,0l0,-3.814l0.809,0c0.31,0.315 0.754,0.635 1.334,0.96c0.579,0.326 1.195,0.574 1.847,0.744c0.653,0.171 1.236,0.255 1.749,0.252l0,1.076c-0.805,-0.018 -1.625,-0.185 -2.461,-0.498c-0.836,-0.314 -1.584,-0.732 -2.243,-1.256l0,2.536Z" style="fill:#515151;fill-rule:nonzero;"/><path d="M386.69,519.407l0.119,1.079c-0.222,0.027 -0.386,0.096 -0.492,0.207c-0.106,0.111 -0.159,0.255 -0.159,0.433c0,0.235 0.106,0.434 0.318,0.597c0.211,0.163 0.652,0.265 1.321,0.307c-0.328,-0.277 -0.492,-0.623 -0.492,-1.035c0,-0.466 0.178,-0.865 0.532,-1.197c0.355,-0.332 0.812,-0.498 1.373,-0.498c0.596,0 1.073,0.174 1.433,0.524c0.36,0.349 0.54,0.797 0.54,1.345c0,0.588 -0.228,1.071 -0.685,1.449c-0.456,0.378 -1.204,0.568 -2.244,0.568c-1.066,0 -1.835,-0.198 -2.306,-0.592c-0.471,-0.394 -0.707,-0.906 -0.707,-1.536c0,-0.442 0.124,-0.808 0.371,-1.097c0.248,-0.29 0.607,-0.475 1.078,-0.554Zm2.433,2.528c0.363,0 0.642,-0.083 0.84,-0.25c0.197,-0.167 0.295,-0.357 0.295,-0.571c0,-0.207 -0.08,-0.379 -0.242,-0.516c-0.161,-0.138 -0.426,-0.207 -0.794,-0.207c-0.378,0 -0.655,0.074 -0.831,0.223c-0.176,0.148 -0.264,0.333 -0.264,0.555c0,0.215 0.084,0.396 0.252,0.544c0.168,0.148 0.416,0.222 0.744,0.222Z" style="fill:#515151;fill-rule:nonzero;"/><path d="M391.084,512.933l0,1.116l-4.203,0c0.381,0.407 0.662,0.887 0.845,1.44l-1.012,0c-0.095,-0.291 -0.276,-0.607 -0.542,-0.948c-0.266,-0.342 -0.576,-0.576 -0.931,-0.703l0,-0.905l5.843,0Z" style="fill:#515151;fill-rule:nonzero;"/><path d="M386.38,508.389l-1.035,0l0,-3.815l0.809,0c0.31,0.315 0.754,0.635 1.334,0.961c0.579,0.325 1.195,0.573 1.847,0.744c0.653,0.171 1.236,0.255 1.749,0.252l0,1.076c-0.805,-0.019 -1.625,-0.185 -2.461,-0.498c-0.836,-0.314 -1.584,-0.733 -2.243,-1.257l0,2.537Z" style="fill:#515151;fill-rule:nonzero;"/><path d="M389.738,500.966l-0.119,-1.079c0.22,-0.027 0.383,-0.096 0.488,-0.207c0.106,-0.111 0.159,-0.258 0.159,-0.44c0,-0.23 -0.106,-0.426 -0.317,-0.588c-0.212,-0.161 -0.651,-0.264 -1.318,-0.309c0.325,0.28 0.488,0.631 0.488,1.052c0,0.457 -0.176,0.852 -0.53,1.184c-0.353,0.332 -0.813,0.498 -1.379,0.498c-0.59,0 -1.066,-0.175 -1.427,-0.525c-0.361,-0.351 -0.542,-0.798 -0.542,-1.34c0,-0.59 0.229,-1.074 0.685,-1.453c0.456,-0.378 1.207,-0.567 2.252,-0.567c1.064,0 1.832,0.197 2.303,0.591c0.471,0.394 0.706,0.908 0.706,1.54c0,0.455 -0.121,0.823 -0.363,1.103c-0.242,0.281 -0.604,0.461 -1.086,0.54Zm-2.437,-2.524c-0.36,0 -0.639,0.083 -0.837,0.248c-0.199,0.165 -0.298,0.357 -0.298,0.574c0,0.206 0.081,0.377 0.244,0.514c0.163,0.136 0.43,0.204 0.8,0.204c0.376,0 0.652,-0.074 0.828,-0.222c0.176,-0.149 0.264,-0.334 0.264,-0.556c0,-0.214 -0.085,-0.395 -0.254,-0.542c-0.17,-0.147 -0.419,-0.22 -0.747,-0.22Z" style="fill:#515151;fill-rule:nonzero;"/><path d="M386.38,493.592l-1.035,0l0,-3.815l0.809,0c0.31,0.315 0.754,0.635 1.334,0.961c0.579,0.325 1.195,0.573 1.847,0.744c0.653,0.171 1.236,0.255 1.749,0.252l0,1.076c-0.805,-0.019 -1.625,-0.185 -2.461,-0.498c-0.836,-0.314 -1.584,-0.733 -2.243,-1.257l0,2.537Z" style="fill:#515151;fill-rule:nonzero;"/><path d="M385.241,484.308c0,-0.564 0.201,-1.004 0.604,-1.322c0.476,-0.378 1.266,-0.567 2.369,-0.567c1.101,0 1.892,0.19 2.374,0.571c0.397,0.315 0.595,0.754 0.595,1.318c0,0.566 -0.218,1.023 -0.653,1.369c-0.435,0.347 -1.211,0.52 -2.328,0.52c-1.095,0 -1.884,-0.19 -2.365,-0.571c-0.397,-0.315 -0.596,-0.755 -0.596,-1.318Zm0.925,0c0,0.135 0.043,0.255 0.129,0.361c0.086,0.106 0.24,0.188 0.463,0.246c0.288,0.077 0.774,0.115 1.456,0.115c0.683,0 1.152,-0.034 1.407,-0.103c0.256,-0.069 0.426,-0.155 0.51,-0.26c0.085,-0.104 0.127,-0.224 0.127,-0.359c0,-0.135 -0.043,-0.256 -0.129,-0.361c-0.086,-0.106 -0.24,-0.188 -0.462,-0.246c-0.286,-0.077 -0.77,-0.116 -1.453,-0.116c-0.682,0 -1.152,0.035 -1.407,0.104c-0.255,0.068 -0.426,0.155 -0.512,0.26c-0.086,0.104 -0.129,0.224 -0.129,0.359Z" style="fill:#515151;fill-rule:nonzero;"/><path d="M390.048,475.028l1.036,0l0,3.91c-0.392,-0.043 -0.763,-0.17 -1.113,-0.381c-0.351,-0.212 -0.816,-0.63 -1.396,-1.255c-0.468,-0.502 -0.785,-0.811 -0.952,-0.925c-0.23,-0.153 -0.458,-0.23 -0.683,-0.23c-0.249,0 -0.44,0.067 -0.573,0.201c-0.134,0.133 -0.201,0.318 -0.201,0.553c0,0.233 0.07,0.419 0.21,0.556c0.141,0.138 0.374,0.217 0.699,0.238l-0.111,1.112c-0.614,-0.067 -1.055,-0.274 -1.322,-0.624c-0.267,-0.349 -0.401,-0.785 -0.401,-1.309c0,-0.575 0.155,-1.026 0.465,-1.354c0.309,-0.328 0.694,-0.492 1.155,-0.492c0.262,0 0.511,0.047 0.748,0.141c0.237,0.094 0.485,0.243 0.744,0.446c0.172,0.135 0.42,0.379 0.742,0.731c0.323,0.352 0.538,0.575 0.643,0.669c0.106,0.093 0.209,0.17 0.31,0.228l0,-2.215Z" style="fill:#515151;fill-rule:nonzero;"/><path d="M391.084,468.542l0,1.116l-4.203,0c0.381,0.407 0.662,0.888 0.845,1.441l-1.012,0c-0.095,-0.292 -0.276,-0.608 -0.542,-0.949c-0.266,-0.341 -0.576,-0.576 -0.931,-0.703l0,-0.905l5.843,0Z" style="fill:#515151;fill-rule:nonzero;"/></g></g><g id="Text-Dividers" serif:id="Text Dividers"><path d="M391.187,361.087c0,-0.19 -0.154,-0.343 -0.343,-0.343l-132.601,0c-0.19,0 -0.344,0.153 -0.344,0.343l0,6.179c0,0.189 0.154,0.343 0.344,0.343l132.601,0c0.189,0 0.343,-0.154 0.343,-0.343l0,-6.179Z" style="fill:#cb403d;"/><path d="M391.187,408.446c0,-0.189 -0.154,-0.343 -0.343,-0.343l-132.601,0c-0.19,0 -0.344,0.154 -0.344,0.343l0,6.179c0,0.19 0.154,0.343 0.344,0.343l132.601,0c0.189,0 0.343,-0.153 0.343,-0.343l0,-6.179Z" style="fill:#cb403d;"/><path d="M391.187,453.567c0,-0.19 -0.154,-0.344 -0.343,-0.344l-132.601,0c-0.19,0 -0.344,0.154 -0.344,0.344l0,6.179c0,0.189 0.154,0.343 0.344,0.343l132.601,0c0.189,0 0.343,-0.154 0.343,-0.343l0,-6.179Z" style="fill:#cb403d;"/><path d="M391.187,378.988c0,-0.061 -0.05,-0.111 -0.111,-0.111l-133.065,0c-0.062,0 -0.112,0.05 -0.112,0.111l0,1.999c0,0.061 0.05,0.111 0.112,0.111l133.065,0c0.061,0 0.111,-0.05 0.111,-0.111l0,-1.999Z" style="fill:#cb403d;"/></g></g><g id="Price-Tag" serif:id="Price Tag"><path id="Base" d="M396.445,552.327c-0.092,-0.906 -0.903,-1.567 -1.809,-1.474l-55.103,5.636c-0.906,0.092 -1.566,0.903 -1.473,1.809l3.022,29.55c0.092,0.906 0.903,1.566 1.809,1.473l55.103,-5.635c0.906,-0.093 1.566,-0.904 1.474,-1.81l-3.023,-29.549Z" style="fill:#e9e9e9;"/><g id="Price"><path d="M345.796,567.835c0.281,0.012 0.566,0.084 0.852,0.219c0.055,-0.059 0.109,-0.104 0.162,-0.137c0.053,-0.032 0.106,-0.052 0.16,-0.06c0.178,-0.025 0.334,0.042 0.469,0.2c0.134,0.158 0.23,0.441 0.287,0.849l0.076,0.545c0.057,0.408 0.042,0.706 -0.044,0.895c-0.086,0.189 -0.216,0.296 -0.39,0.32c-0.159,0.022 -0.304,-0.034 -0.435,-0.167c-0.131,-0.133 -0.226,-0.342 -0.285,-0.626c-0.322,-0.275 -0.693,-0.383 -1.11,-0.325c-0.438,0.061 -0.742,0.217 -0.914,0.469c-0.172,0.251 -0.239,0.512 -0.202,0.782c0.03,0.209 0.118,0.388 0.264,0.536c0.147,0.148 0.426,0.252 0.837,0.313l0.822,0.129c0.693,0.1 1.211,0.323 1.555,0.668c0.447,0.438 0.727,1.059 0.839,1.863c0.099,0.705 0.013,1.356 -0.257,1.952c-0.27,0.597 -0.713,1.028 -1.331,1.294l0.201,1.438c0.057,0.407 0.042,0.706 -0.044,0.895c-0.086,0.189 -0.218,0.296 -0.396,0.32c-0.174,0.025 -0.329,-0.042 -0.463,-0.201c-0.134,-0.158 -0.23,-0.441 -0.287,-0.848l-0.201,-1.438c-0.322,-0.051 -0.652,-0.154 -0.989,-0.309c-0.139,0.222 -0.28,0.343 -0.423,0.363c-0.189,0.026 -0.351,-0.038 -0.485,-0.194c-0.134,-0.155 -0.23,-0.437 -0.287,-0.845l-0.148,-1.066c-0.057,-0.407 -0.043,-0.706 0.043,-0.895c0.086,-0.188 0.218,-0.295 0.396,-0.32c0.144,-0.02 0.271,0.018 0.383,0.115c0.112,0.097 0.206,0.256 0.28,0.479c0.074,0.223 0.158,0.387 0.252,0.491c0.141,0.161 0.338,0.283 0.593,0.369c0.254,0.085 0.507,0.11 0.758,0.075c0.442,-0.062 0.786,-0.275 1.035,-0.642c0.167,-0.242 0.227,-0.534 0.18,-0.875c-0.04,-0.281 -0.138,-0.504 -0.294,-0.667c-0.157,-0.158 -0.454,-0.268 -0.893,-0.331l-0.929,-0.131c-0.655,-0.089 -1.162,-0.346 -1.522,-0.774c-0.359,-0.427 -0.585,-0.968 -0.676,-1.624c-0.091,-0.65 -0.013,-1.251 0.234,-1.802c0.246,-0.551 0.625,-0.929 1.137,-1.136l-0.064,-0.462c-0.057,-0.403 -0.042,-0.698 0.044,-0.887c0.087,-0.189 0.219,-0.296 0.397,-0.321c0.174,-0.024 0.328,0.043 0.462,0.201c0.135,0.158 0.23,0.439 0.286,0.841l0.065,0.462Z" style="fill:#5e68c2;fill-rule:nonzero;"/><path d="M360.817,564.932l1.293,9.272l1.201,-0.168c0.286,-0.04 0.501,0.011 0.645,0.151c0.144,0.14 0.234,0.336 0.269,0.59c0.034,0.248 0.002,0.459 -0.098,0.633c-0.1,0.174 -0.293,0.281 -0.58,0.321l-3.592,0.5c-0.286,0.04 -0.501,-0.01 -0.645,-0.15c-0.144,-0.14 -0.233,-0.336 -0.269,-0.59c-0.034,-0.248 -0.001,-0.459 0.099,-0.633c0.1,-0.174 0.293,-0.281 0.579,-0.321l1.201,-0.167l-0.985,-7.066l-1.007,0.545c-0.161,0.09 -0.284,0.141 -0.369,0.153c-0.151,0.021 -0.293,-0.047 -0.428,-0.202c-0.134,-0.155 -0.218,-0.357 -0.253,-0.605c-0.031,-0.226 -0.015,-0.409 0.048,-0.55c0.063,-0.141 0.217,-0.279 0.463,-0.414l2.428,-1.299Z" style="fill:#5e68c2;fill-rule:nonzero;"/><path d="M370.089,573.95c0.045,0.32 0.003,0.598 -0.126,0.835c-0.129,0.237 -0.332,0.375 -0.611,0.414c-0.278,0.039 -0.512,-0.038 -0.7,-0.231c-0.189,-0.193 -0.306,-0.449 -0.35,-0.768c-0.045,-0.32 -0.003,-0.598 0.126,-0.835c0.129,-0.237 0.332,-0.375 0.611,-0.414c0.278,-0.039 0.512,0.038 0.7,0.231c0.189,0.193 0.306,0.449 0.35,0.768Z" style="fill:#5e68c2;fill-rule:nonzero;"/><path d="M385.474,568.14c-0.247,0.405 -0.484,0.701 -0.711,0.887c-0.226,0.186 -0.477,0.298 -0.751,0.336c-0.639,0.089 -1.248,-0.196 -1.827,-0.857c-0.579,-0.661 -0.944,-1.531 -1.094,-2.611c-0.118,-0.843 -0.06,-1.631 0.172,-2.366c0.317,-1.01 0.883,-1.572 1.7,-1.686c0.584,-0.081 1.129,0.097 1.636,0.534c0.507,0.438 0.928,1.112 1.264,2.023c0.336,0.911 0.575,1.876 0.718,2.895c0.241,1.73 -0.036,3.184 -0.83,4.362c-0.615,0.905 -1.356,1.419 -2.222,1.54c-0.48,0.066 -0.871,-0.02 -1.172,-0.258c-0.204,-0.157 -0.326,-0.385 -0.367,-0.682c-0.034,-0.242 -0.005,-0.453 0.086,-0.631c0.092,-0.179 0.22,-0.28 0.387,-0.303c0.093,-0.013 0.203,0.014 0.33,0.081c0.167,0.089 0.333,0.122 0.499,0.098c0.6,-0.083 1.113,-0.451 1.539,-1.103c0.425,-0.652 0.64,-1.405 0.643,-2.259Zm-0.541,-2.646c-0.236,-0.764 -0.503,-1.293 -0.798,-1.586c-0.295,-0.293 -0.603,-0.417 -0.924,-0.372c-0.337,0.047 -0.598,0.27 -0.783,0.669c-0.184,0.399 -0.235,0.902 -0.15,1.508c0.088,0.634 0.279,1.129 0.571,1.487c0.293,0.358 0.592,0.516 0.897,0.473c0.538,-0.075 0.934,-0.801 1.187,-2.179Z" style="fill:#5e68c2;fill-rule:nonzero;"/><path d="M393.034,567.086c-0.247,0.405 -0.484,0.7 -0.711,0.886c-0.226,0.186 -0.477,0.299 -0.751,0.337c-0.639,0.089 -1.248,-0.197 -1.827,-0.857c-0.579,-0.661 -0.944,-1.531 -1.094,-2.611c-0.118,-0.843 -0.06,-1.632 0.172,-2.366c0.317,-1.01 0.883,-1.572 1.7,-1.686c0.584,-0.082 1.129,0.096 1.636,0.534c0.507,0.438 0.928,1.112 1.264,2.023c0.336,0.91 0.575,1.875 0.718,2.894c0.241,1.73 -0.036,3.184 -0.83,4.362c-0.615,0.906 -1.356,1.419 -2.222,1.54c-0.48,0.067 -0.871,-0.019 -1.172,-0.258c-0.204,-0.157 -0.326,-0.384 -0.367,-0.681c-0.034,-0.243 -0.005,-0.453 0.086,-0.632c0.092,-0.178 0.22,-0.279 0.387,-0.302c0.093,-0.013 0.203,0.014 0.33,0.08c0.167,0.089 0.333,0.122 0.499,0.099c0.6,-0.084 1.113,-0.451 1.539,-1.103c0.425,-0.652 0.64,-1.405 0.643,-2.259Zm-0.541,-2.646c-0.236,-0.765 -0.503,-1.293 -0.798,-1.586c-0.295,-0.293 -0.603,-0.418 -0.924,-0.373c-0.337,0.047 -0.598,0.27 -0.783,0.67c-0.184,0.399 -0.235,0.902 -0.15,1.508c0.088,0.633 0.279,1.129 0.571,1.487c0.293,0.358 0.592,0.516 0.897,0.473c0.538,-0.075 0.934,-0.801 1.187,-2.179Z" style="fill:#5e68c2;fill-rule:nonzero;"/></g></g></g></svg>