<?xml version="1.0" encoding="UTF-8" standalone="no"?><!DOCTYPE svg PUBLIC "-//W3C//DTD SVG 1.1//EN" "http://www.w3.org/Graphics/SVG/1.1/DTD/svg11.dtd"><svg width="100%" height="100%" viewBox="0 0 696 61" version="1.1" xmlns="http://www.w3.org/2000/svg" xmlns:xlink="http://www.w3.org/1999/xlink" xml:space="preserve" xmlns:serif="http://www.serif.com/" style="fill-rule:evenodd;clip-rule:evenodd;stroke-linejoin:round;stroke-miterlimit:1.41421;"><g id="Pen"><rect x="659.28" y="2.566" width="31.102" height="45.936" style="fill:#333;"/><ellipse cx="690.382" cy="25.534" rx="5.115" ry="22.968" style="fill:#4d4d4d;"/><path d="M29.595,0.597l-21.445,0c-9.033,9.991 -11.941,34.562 0,49.874l21.445,0c-7.158,-15.29 -5.851,-32.158 0,-49.874Z" style="fill:#333;"/><ellipse cx="182.242" cy="25.534" rx="4.523" ry="24.937" style="fill:#333;"/><path d="M666.216,2.566l-490.752,0l0,45.936l490.752,0c-4.747,-14.492 -4.547,-29.838 0,-45.936Z" style="fill:#677274;"/><path d="M174.952,57.533c-5.406,-3.065 -11.317,-5.919 -17.386,-6.304c-6.915,0.562 -12.098,2.827 -17.19,6.304l-102.366,0c-5.765,-0.858 -8.387,-4.243 -8.925,-9.031l-3.517,0c0,6.866 5.575,12.441 12.442,12.441l136.942,0c0.623,-1.123 0.74,-2.257 0,-3.41Z" style="fill:#d7d7d7;"/><path d="M182.242,0.597l-155.152,0c-6.893,18.32 -6.846,34.933 0,49.874l155.152,0c-4.23,-17.556 -5.007,-34.363 0,-49.874Z" style="fill:#333;"/><path d="M180.922,0.597l-155.152,0c-6.893,18.32 -6.846,34.933 0,49.874l155.152,0c-4.229,-17.556 -5.007,-34.363 0,-49.874Z" style="fill:#677274;"/><g id="Label"><g><path d="M608.231,25.536c0,-0.671 0.069,-1.21 0.207,-1.619c0.138,-0.408 0.343,-0.723 0.615,-0.945c0.272,-0.222 0.614,-0.333 1.026,-0.333c0.305,0 0.571,0.062 0.801,0.184c0.229,0.123 0.419,0.299 0.568,0.53c0.15,0.231 0.267,0.512 0.352,0.843c0.085,0.331 0.128,0.778 0.128,1.34c0,0.665 -0.069,1.202 -0.205,1.61c-0.137,0.409 -0.341,0.725 -0.613,0.948c-0.272,0.223 -0.616,0.334 -1.031,0.334c-0.546,0 -0.975,-0.196 -1.287,-0.588c-0.374,-0.471 -0.561,-1.24 -0.561,-2.304Zm0.715,0c0,0.93 0.109,1.55 0.327,1.858c0.218,0.308 0.487,0.462 0.806,0.462c0.32,0 0.589,-0.155 0.807,-0.464c0.217,-0.31 0.326,-0.928 0.326,-1.856c0,-0.934 -0.109,-1.554 -0.326,-1.86c-0.218,-0.307 -0.49,-0.46 -0.814,-0.46c-0.32,0 -0.575,0.135 -0.766,0.406c-0.24,0.345 -0.36,0.983 -0.36,1.914Z" style="fill:#fff;fill-rule:nonzero;"/><rect x="613.026" y="27.539" width="0.793" height="0.793" style="fill:#fff;fill-rule:nonzero;"/><path d="M617.457,28.331l-0.696,0l0,-4.435c-0.167,0.16 -0.387,0.32 -0.659,0.48c-0.272,0.159 -0.516,0.279 -0.733,0.359l0,-0.673c0.39,-0.183 0.73,-0.404 1.021,-0.665c0.291,-0.26 0.498,-0.513 0.619,-0.758l0.448,0l0,5.692Z" style="fill:#fff;fill-rule:nonzero;"/></g><path d="M612.844,15.251c8.532,0 15.459,4.608 15.459,10.283c0,5.675 -6.927,10.282 -15.459,10.282c-8.532,0 -15.458,-4.607 -15.458,-10.282c0,-5.675 6.926,-10.283 15.458,-10.283Zm-0.052,1.114c6.055,0 10.971,4.12 10.971,9.194c0,5.075 -4.916,9.195 -10.971,9.195c-6.056,0 -10.972,-4.12 -10.972,-9.195c0,-5.074 4.916,-9.194 10.972,-9.194Z" style="fill:#fff;"/></g></g></svg>